Coordinates
version=1
nRows=17
nColumns=34
inDegrees=yes

Units are S.I. units (second, meters, Newtons, ...)
If the header above contains a line with 'inDegrees', this indicates whether rotational values are in degrees (yes) or radians (no).

endheader
time	pelvis_tilt	pelvis_list	pelvis_rotation	pelvis_tx	pelvis_ty	pelvis_tz	hip_flexion_r	hip_adduction_r	hip_rotation_r	knee_angle_r	ankle_angle_r	subtalar_angle_r	mtp_angle_r	hip_flexion_l	hip_adduction_l	hip_rotation_l	knee_angle_l	ankle_angle_l	subtalar_angle_l	mtp_angle_l	lumbar_extension	lumbar_bending	lumbar_rotation	arm_flex_r	arm_add_r	arm_rot_r	elbow_flex_r	pro_sup_r	arm_flex_l	arm_add_l	arm_rot_l	elbow_flex_l	pro_sup_l
      4.95000000	      9.79860004	      5.49129526	     -1.91894773	      0.50501370	      0.65934761	     -0.02385841	     38.77281630	      9.13857738	     -2.22817542	     95.69534020	     49.47767859	    -21.57726334	      0.00000000	     58.97918397	     -6.66875959	     -7.64033905	     27.80767217	      7.11443746	      2.19128550	      0.00000000	    -36.66492819	     -2.26869133	     -2.24522528	     76.32864085	     10.52757109	     76.93847594	    119.78328253	    101.39498307	     53.02007826	      7.21524752	     50.77753903	    118.10381061	     84.82565136
      4.96666670	      9.68400325	      5.49362519	     -1.74119360	      0.50479880	      0.65889168	     -0.02442842	     39.51342366	      9.21051226	     -2.17375613	     96.03919535	     50.00000000	    -21.76642037	      0.00000000	     58.75550085	     -6.40971152	     -7.80657953	     27.78551015	      7.15460893	      2.15902795	      0.00000000	    -37.27468753	     -2.19361972	     -2.42826444	     76.30976173	     10.27273477	     76.96336102	    119.62088963	    101.34991952	     53.84593802	      6.58091636	     49.83126253	    117.33818656	     84.88207867
      4.98333330	      9.76654698	      5.61604061	     -1.54115004	      0.50385867	      0.65570387	     -0.02421758	     40.05094409	      9.01135967	     -2.41638021	     96.89858306	     50.00000000	    -21.64162848	      0.00000000	     58.41114558	     -6.09016511	     -7.97383788	     27.64464062	      7.15758221	      2.34477954	      0.00000000	    -37.86715294	     -2.15458964	     -2.56943888	     76.15723381	      9.95418967	     76.87874951	    119.34449315	    101.28818572	     54.17532401	      6.10874348	     47.87258433	    116.33171061	     84.87952697
      5.00000000	      9.61825686	      5.60248476	     -1.58157950	      0.50401722	      0.65431973	     -0.02435906	     40.54972112	      9.17329951	     -2.44295741	     97.27919096	     50.00000000	    -21.66191613	      0.00000000	     58.09188469	     -6.09470804	     -8.31906529	     27.37225222	      7.07992508	      2.28579588	      0.00000000	    -38.30901577	     -2.22125014	     -2.53511226	     76.02071601	      9.84857091	     76.88177238	    119.25586055	    101.23394344	     54.06007995	      5.85316046	     45.87138754	    115.76854592	     84.84387463
      5.01666670	      9.52394682	      5.61301034	     -1.64626383	      0.50313537	      0.65066031	     -0.02638673	     41.20003686	      9.11124439	     -2.60000118	     98.27361826	     50.00000000	    -21.61203160	      0.00000000	     57.88659529	     -5.98154470	     -8.30550307	     27.30123314	      7.38184752	      2.20329330	      0.00000000	    -38.68207848	     -2.16876843	     -2.43479147	     76.03752535	      9.77240413	     76.87328974	    119.26752746	    101.22148538	     54.06916593	      5.77497435	     45.31428961	    115.73621408	     84.82470483
      5.03333330	      9.45711449	      5.57929963	     -1.86659255	      0.50367402	      0.65050741	     -0.02641471	     41.40520085	      9.22262622	     -2.62279960	     98.78928438	     49.13021184	    -21.72225526	      0.00000000	     57.62428896	     -6.03416131	     -8.38646927	     27.20725251	      7.57504358	      2.22568476	      0.00000000	    -39.02778311	     -2.27548446	     -2.49338972	     75.95422612	      9.76484656	     77.10565632	    119.40266175	    101.19241292	     53.25552535	      6.04746590	     43.28113946	    115.49625974	     84.72250799
      5.05000000	      9.43445211	      5.53175016	     -1.97338284	      0.50371752	      0.64886689	     -0.02703462	     41.55365925	      9.32681602	     -2.63858540	     99.45016740	     48.45663011	    -21.62746445	      0.00000000	     57.43539027	     -5.99765299	     -8.19576006	     27.46130349	      7.90773715	      2.26732457	      0.00000000	    -39.33302961	     -2.28337414	     -2.44283520	     75.88491445	      9.78453626	     77.26932916	    119.42480006	    101.19380220	     52.98872634	      6.18485901	     43.06710708	    115.58269598	     84.70971064
      5.06666670	      9.57532279	      5.43526534	     -1.77022626	      0.50430055	      0.64890926	     -0.02754075	     41.43505384	      9.44301452	     -2.56064880	     99.43106731	     47.47145156	    -22.84944159	      0.00000000	     56.96094100	     -5.86464832	     -8.45250127	     27.44065606	      8.47116611	      2.76233531	      0.00000000	    -39.71600873	     -1.99984151	     -2.66403504	     76.16308600	      9.93440301	     77.76240934	    119.47473713	    101.19701729	     52.66635211	      6.61622113	     42.81496746	    116.27456286	     84.69624833
      5.08333330	      9.56855340	      5.55283616	     -1.60306276	      0.50260904	      0.64689661	     -0.02862846	     41.62593899	      9.27386395	     -2.50022177	     99.67569697	     47.27342831	    -22.93357100	      0.00000000	     57.01856514	     -5.51034892	     -8.51814022	     27.94221326	      8.64093507	      2.78469347	      0.00000000	    -39.85714165	     -1.96017309	     -2.86464505	     76.30610949	     10.16255034	     77.73845006	    119.41017064	    101.19529187	     52.92282680	      7.06088470	     43.08218778	    116.50984483	     84.71503498
      5.10000000	      9.65777677	      5.56529766	     -1.78277380	      0.49739312	      0.64379331	     -0.03027190	     41.95545533	      9.44260024	     -2.26928113	     99.97991806	     46.77741819	    -23.34738569	      0.00000000	     57.10996809	     -5.44723020	     -8.43045776	     28.19909540	      8.59355722	      2.90710206	      0.00000000	    -40.14471210	     -1.85367185	     -2.80125308	     77.24029453	     10.38363906	     77.57865977	    119.36510565	    101.18242463	     53.55811918	      7.30652441	     44.45578446	    117.38284504	     84.83868043
      5.11666670	      9.52287437	      5.63332284	     -1.85377403	      0.49611814	      0.64377253	     -0.03070517	     42.78749826	      9.41766353	     -2.18367218	    100.49322222	     45.98916083	    -23.59961362	      0.00000000	     57.42383977	     -5.30843748	     -8.22945333	     28.62608027	      8.37746007	      2.75639185	      0.00000000	    -40.30657086	     -1.91056086	     -2.88667204	     77.97450498	     10.53635729	     77.51118712	    119.39605549	    101.14584049	     53.99512202	      7.90608397	     47.28615792	    118.65063985	     85.08617697
      5.13333330	      9.24993777	      5.68818258	     -1.95352420	      0.49659919	      0.64306307	     -0.03223904	     43.42270449	      9.45140316	     -1.96498266	    100.83509779	     45.62926605	    -23.79122581	      0.00000000	     57.81727777	     -5.21619314	     -8.03399658	     29.03384476	      8.27312551	      2.41277165	      0.00000000	    -40.25564274	     -1.94511395	     -2.81057749	     78.61328630	     10.60025389	     77.49286385	    119.42405769	    101.07433395	     54.30142788	      8.47147259	     50.41445264	    119.62258587	     85.39687996
      5.15000000	      9.17736932	      5.77836944	     -1.82832872	      0.50021316	      0.64510766	     -0.03132247	     43.14227343	      9.41515091	     -1.86963717	    100.37371578	     45.86808886	    -24.03866553	      0.00000000	     57.77471863	     -5.07445803	     -7.99487609	     29.31566346	      8.57464850	      2.25151667	      0.00000000	    -40.09191508	     -2.07449127	     -3.12479248	     78.67993257	     10.45926208	     77.50890352	    119.24308065	    101.04460061	     53.69793960	      9.08941336	     51.97349399	    120.04868814	     85.52048412
      5.16666670	      8.74760221	      6.01640057	     -1.72054086	      0.50149625	      0.64780733	     -0.03144012	     42.87740965	      9.29949041	     -1.73489134	     99.62730886	     45.49735769	    -24.47297979	      0.00000000	     57.86491870	     -4.80865612	     -7.92053755	     29.28732736	      8.82082492	      1.95342471	      0.00000000	    -39.67454059	     -2.38189991	     -3.17275643	     78.27888009	     10.39781039	     78.05901485	    119.48016970	    100.93694269	     54.24289012	      8.65959659	     56.07527430	    120.98128268	     85.95861667
      5.18333330	      8.65085630	      6.08150616	     -1.75412858	      0.50027085	      0.64816808	     -0.03136253	     42.45334718	      9.40883779	     -1.58915401	     99.06251311	     45.25894341	    -24.94683720	      0.00000000	     57.83002035	     -4.83160179	     -7.99273935	     29.25950744	      9.10109324	      1.79054657	      0.00000000	    -39.43566137	     -2.59573262	     -3.04152155	     78.07652246	     10.31423877	     78.19697093	    119.47322454	    100.78863781	     54.42534896	      8.70685973	     58.08379237	    121.15260170	     86.27254951
      5.20000000	      8.43728626	      6.15609639	     -1.57899845	      0.50138547	      0.65038335	     -0.03210322	     42.66278588	      9.39863594	     -1.35188743	     98.56066896	     45.94276522	    -25.48682424	      0.00000000	     57.93958661	     -4.67023187	     -8.15656605	     29.17555912	      9.21431820	      1.66505580	      0.00000000	    -39.15389191	     -2.75227374	     -3.31005768	     77.78774837	     10.35009870	     78.36127957	    119.63299896	    100.71658384	     54.50108766	      8.65915282	     58.88970662	    121.19075465	     86.38941024
      5.21666670	      8.13248950	      6.29486725	     -1.28677632	      0.50195418	      0.65232474	     -0.03116955	     42.68502623	      9.37320119	     -1.14179961	     97.92249777	     46.77105271	    -25.10280809	      0.00000000	     58.19935533	     -4.48878872	     -8.32446169	     29.14275431	      9.20502958	      1.87152144	      0.00000000	    -38.49742489	     -3.00190593	     -3.43298148	     77.17989870	     10.11977898	     78.20808907	    119.68723530	    100.48803462	     54.84968526	      8.32816965	     60.08883167	    121.24223138	     86.60412827
